<svg width="16" height="17" viewBox="0 0 16 17" fill="none" xmlns="http://www.w3.org/2000/svg">
<path d="M1.96347 9.2811e-06C1.74617 -5.55688e-05 1.5132 -0.000125187 1.32057 0.0195329C1.13146 0.0388315 0.759912 0.0925491 0.448764 0.37833C0.119933 0.680351 0.0478371 1.0627 0.0230848 1.26748C2.26498e-06 1.45843 0.000149608 1.68552 0.000276446 1.88055L0 10.9558C0.000422835 14.5881 2.80494 17 6.00012 17L10.0001 17C13.1914 17 16 14.5918 16 10.9833L16.0001 1.94608C16.0001 1.72258 15.9986 1.47032 15.9659 1.25144C15.9325 1.0279 15.8438 0.662168 15.5227 0.374022C15.2169 0.0996167 14.8588 0.0415733 14.6618 0.0204818C14.4692 -0.000141399 14.2407 -6.22445e-05 14.0357 8.32743e-06L1.96347 9.2811e-06Z" fill="black"/>
</svg>
