<svg width="20" height="7" viewBox="0 0 20 7" fill="none" xmlns="http://www.w3.org/2000/svg">
<path fill-rule="evenodd" clip-rule="evenodd" d="M5.29289 1.29289C6.12072 0.465067 7.24349 0 8.41421 0H11.5858C12.7565 0 13.8793 0.465068 14.7071 1.29289L14.8787 1.46447C15.2216 1.80736 15.6866 2 16.1716 2H17.5C18.8807 2 20 3.11929 20 4.5C20 5.88071 18.8807 7 17.5 7H2.5C1.11929 7 0 5.88071 0 4.5C0 3.11929 1.11929 2 2.5 2H3.82843C4.31336 2 4.77842 1.80736 5.12132 1.46447L5.29289 1.29289Z" fill="black"/>
</svg>
